0
SECTION
2
HEADER
9
$INSUNITS
70
4
0
ENDSEC
0
SECTION
2
TABLES
0
TABLE
2
LTYPE
0
LTYPE
72
65
70
64
2
CONTINUOUS
3
______
73
0
40
0
0
ENDTAB
0
TABLE
2
LAYER
0
ENDTAB
0
ENDSEC
0
SECTION
2
ENTITIES
0
LINE
8
0
10
9.25
20
-8.25
11
26.75
21
-8.25
0
LINE
8
0
10
26.75
20
-8.25
11
26.75
21
8.25
0
LINE
8
0
10
26.75
20
8.25
11
9.25
21
8.25
0
LINE
8
0
10
9.25
20
8.25
11
9.25
21
-8.25
0
LINE
8
0
10
9.25
20
8.75
11
26.75
21
8.75
0
LINE
8
0
10
26.75
20
8.75
11
26.75
21
25.25
0
LINE
8
0
10
26.75
20
25.25
11
9.25
21
25.25
0
LINE
8
0
10
9.25
20
25.25
11
9.25
21
8.75
0
LINE
8
0
10
9.25
20
25.75
11
26.75
21
25.75
0
LINE
8
0
10
26.75
20
25.75
11
26.75
21
42.25
0
LINE
8
0
10
26.75
20
42.25
11
9.25
21
42.25
0
LINE
8
0
10
9.25
20
42.25
11
9.25
21
25.75
0
LINE
8
0
10
27.25
20
-2.25
11
44.75
21
-2.25
0
LINE
8
0
10
44.75
20
-2.25
11
44.75
21
14.25
0
LINE
8
0
10
44.75
20
14.25
11
27.25
21
14.25
0
LINE
8
0
10
27.25
20
14.25
11
27.25
21
-2.25
0
LINE
8
0
10
27.25
20
14.75
11
44.75
21
14.75
0
LINE
8
0
10
44.75
20
14.75
11
44.75
21
31.25
0
LINE
8
0
10
44.75
20
31.25
11
27.25
21
31.25
0
LINE
8
0
10
27.25
20
31.25
11
27.25
21
14.75
0
LINE
8
0
10
27.25
20
31.75
11
44.75
21
31.75
0
LINE
8
0
10
44.75
20
31.75
11
44.75
21
48.25
0
LINE
8
0
10
44.75
20
48.25
11
27.25
21
48.25
0
LINE
8
0
10
27.25
20
48.25
11
27.25
21
31.75
0
LINE
8
0
10
45.25
20
1.75
11
62.75
21
1.75
0
LINE
8
0
10
62.75
20
1.75
11
62.75
21
18.25
0
LINE
8
0
10
62.75
20
18.25
11
45.25
21
18.25
0
LINE
8
0
10
45.25
20
18.25
11
45.25
21
1.75
0
LINE
8
0
10
45.25
20
18.75
11
62.75
21
18.75
0
LINE
8
0
10
62.75
20
18.75
11
62.75
21
35.25
0
LINE
8
0
10
62.75
20
35.25
11
45.25
21
35.25
0
LINE
8
0
10
45.25
20
35.25
11
45.25
21
18.75
0
LINE
8
0
10
45.25
20
35.75
11
62.75
21
35.75
0
LINE
8
0
10
62.75
20
35.75
11
62.75
21
52.25
0
LINE
8
0
10
62.75
20
52.25
11
45.25
21
52.25
0
LINE
8
0
10
45.25
20
52.25
11
45.25
21
35.75
0
LINE
8
0
10
63.25
20
-1.25
11
80.75
21
-1.25
0
LINE
8
0
10
80.75
20
-1.25
11
80.75
21
15.25
0
LINE
8
0
10
80.75
20
15.25
11
63.25
21
15.25
0
LINE
8
0
10
63.25
20
15.25
11
63.25
21
-1.25
0
LINE
8
0
10
63.25
20
15.75
11
80.75
21
15.75
0
LINE
8
0
10
80.75
20
15.75
11
80.75
21
32.25
0
LINE
8
0
10
80.75
20
32.25
11
63.25
21
32.25
0
LINE
8
0
10
63.25
20
32.25
11
63.25
21
15.75
0
LINE
8
0
10
63.25
20
32.75
11
80.75
21
32.75
0
LINE
8
0
10
80.75
20
32.75
11
80.75
21
49.25
0
LINE
8
0
10
80.75
20
49.25
11
63.25
21
49.25
0
LINE
8
0
10
63.25
20
49.25
11
63.25
21
32.75
0
LINE
8
0
10
81.25
20
-3.25
11
98.75
21
-3.25
0
LINE
8
0
10
98.75
20
-3.25
11
98.75
21
13.25
0
LINE
8
0
10
98.75
20
13.25
11
81.25
21
13.25
0
LINE
8
0
10
81.25
20
13.25
11
81.25
21
-3.25
0
LINE
8
0
10
81.25
20
13.75
11
98.75
21
13.75
0
LINE
8
0
10
98.75
20
13.75
11
98.75
21
30.25
0
LINE
8
0
10
98.75
20
30.25
11
81.25
21
30.25
0
LINE
8
0
10
81.25
20
30.25
11
81.25
21
13.75
0
LINE
8
0
10
81.25
20
30.75
11
98.75
21
30.75
0
LINE
8
0
10
98.75
20
30.75
11
98.75
21
47.25
0
LINE
8
0
10
98.75
20
47.25
11
81.25
21
47.25
0
LINE
8
0
10
81.25
20
47.25
11
81.25
21
30.75
0
ENDSEC
0
EOF