%TF.GenerationSoftware,KiCad,Pcbnew,(6.0.9)*%
%TF.CreationDate,2022-12-19T17:51:50-06:00*%
%TF.ProjectId,gentle34,67656e74-6c65-4333-942e-6b696361645f,v1.0.0*%
%TF.SameCoordinates,Original*%
%TF.FileFunction,Profile,NP*%
%FSLAX46Y46*%
G04 Gerber Fmt 4.6, Leading zero omitted, Abs format (unit mm)*
G04 Created by KiCad (PCBNEW (6.0.9)) date 2022-12-19 17:51:50*
%MOMM*%
%LPD*%
G01*
G04 APERTURE LIST*
%TA.AperFunction,Profile*%
%ADD10C,0.150000*%
%TD*%
G04 APERTURE END LIST*
D10*
X8250000Y-28250000D02*
X8250000Y43000000D01*
X9000000Y43750000D02*
X25500000Y43750000D01*
X27000000Y49750000D02*
X43500000Y49750000D01*
X26250000Y44500000D02*
X26250000Y49000000D01*
X45000000Y53750000D02*
X63000000Y53750000D01*
X63750000Y53000000D02*
X63750000Y51500000D01*
X44250000Y50500000D02*
X44250000Y53000000D01*
X64500000Y50750000D02*
X81000000Y50750000D01*
X81750000Y50000000D02*
X81750000Y49500000D01*
X99750000Y-5500000D02*
X99750000Y48000000D01*
X82500000Y48750000D02*
X99000000Y48750000D01*
X64000000Y-23750000D02*
X89500000Y-23750000D01*
X107750000Y-33000000D02*
X107750000Y-7000000D01*
X90250000Y-33000000D02*
X90250000Y-24500000D01*
X100500000Y-6250000D02*
X107000000Y-6250000D01*
X91000000Y-33750000D02*
X107000000Y-33750000D01*
X9000000Y-29000000D02*
X62500000Y-29000000D01*
X63250000Y-28250000D02*
X63250000Y-24500000D01*
X9000000Y43750000D02*
G75*
G03*
X8250000Y43000000I0J-750000D01*
G01*
X25500000Y43750000D02*
G75*
G03*
X26250000Y44500000I0J750000D01*
G01*
X27000000Y49750000D02*
G75*
G03*
X26250000Y49000000I0J-750000D01*
G01*
X43500000Y49750000D02*
G75*
G03*
X44250000Y50500000I0J750000D01*
G01*
X45000000Y53750000D02*
G75*
G03*
X44250000Y53000000I0J-750000D01*
G01*
X63750000Y53000000D02*
G75*
G03*
X63000000Y53750000I-750000J0D01*
G01*
X63750000Y51500000D02*
G75*
G03*
X64500000Y50750000I750000J0D01*
G01*
X81750000Y50000000D02*
G75*
G03*
X81000000Y50750000I-750000J0D01*
G01*
X81750000Y49500000D02*
G75*
G03*
X82500000Y48750000I750000J0D01*
G01*
X99750000Y48000000D02*
G75*
G03*
X99000000Y48750000I-750000J0D01*
G01*
X99750000Y-5500000D02*
G75*
G03*
X100500000Y-6250000I750000J0D01*
G01*
X107750000Y-7000000D02*
G75*
G03*
X107000000Y-6250000I-750000J0D01*
G01*
X107000000Y-33750000D02*
G75*
G03*
X107750000Y-33000000I0J750000D01*
G01*
X90250000Y-33000000D02*
G75*
G03*
X91000000Y-33750000I750000J0D01*
G01*
X90250000Y-24500000D02*
G75*
G03*
X89500000Y-23750000I-750000J0D01*
G01*
X64000000Y-23750000D02*
G75*
G03*
X63250000Y-24500000I0J-750000D01*
G01*
X62500000Y-29000000D02*
G75*
G03*
X63250000Y-28250000I0J750000D01*
G01*
X8250000Y-28250000D02*
G75*
G03*
X9000000Y-29000000I750000J0D01*
G01*
M02*
