M48
; DRILL file {KiCad (6.0.9)} date Mon Dec 19 17:51:35 2022
; FORMAT={-:-/ absolute / inch / decimal}
; #@! TF.CreationDate,2022-12-19T17:51:35-06:00
; #@! TF.GenerationSoftware,Kicad,Pcbnew,(6.0.9)
; #@! TF.FileFunction,NonPlated,1,2,NPTH
FMAT,2
INCH
; #@! TA.AperFunction,NonPlated,NPTH,ComponentDrill
T1C0.0354
; #@! TA.AperFunction,NonPlated,NPTH,ComponentDrill
T2C0.0670
; #@! TA.AperFunction,NonPlated,NPTH,ComponentDrill
T3C0.1181
; #@! TA.AperFunction,NonPlated,NPTH,ComponentDrill
T4C0.1350
%
G90
G05
T1
X2.2441Y-1.0563
X2.2441Y-1.0563
X2.3622Y-1.0563
X2.3622Y-1.0563
T2
X0.4921Y1.3386
X0.4921Y1.3386
X0.4921Y0.6693
X0.4921Y0.6693
X0.4921Y0.0
X0.4921Y0.0
X0.9252Y1.3386
X0.9252Y1.3386
X0.9252Y0.6693
X0.9252Y0.6693
X0.9252Y0.0
X0.9252Y0.0
X1.2008Y1.5748
X1.2008Y1.5748
X1.2008Y0.9055
X1.2008Y0.9055
X1.2008Y0.2362
X1.2008Y0.2362
X1.6339Y1.5748
X1.6339Y1.5748
X1.6339Y0.9055
X1.6339Y0.9055
X1.6339Y0.2362
X1.6339Y0.2362
X1.9094Y1.7323
X1.9094Y1.7323
X1.9094Y1.063
X1.9094Y1.063
X1.9094Y0.3937
X1.9094Y0.3937
X2.3425Y1.7323
X2.3425Y1.7323
X2.3425Y1.063
X2.3425Y1.063
X2.3425Y0.3937
X2.3425Y0.3937
X2.6181Y1.6142
X2.6181Y1.6142
X2.6181Y0.9449
X2.6181Y0.9449
X2.6181Y0.2756
X2.6181Y0.2756
X2.815Y-0.5906
X2.815Y-0.5906
X3.0512Y1.6142
X3.0512Y1.6142
X3.0512Y0.9449
X3.0512Y0.9449
X3.0512Y0.2756
X3.0512Y0.2756
X3.248Y-0.5906
X3.248Y-0.5906
X3.3268Y1.5354
X3.3268Y1.5354
X3.3268Y0.8661
X3.3268Y0.8661
X3.3268Y0.1969
X3.3268Y0.1969
X3.7598Y1.5354
X3.7598Y1.5354
X3.7598Y0.8661
X3.7598Y0.8661
X3.7598Y0.1969
X3.7598Y0.1969
X3.8976Y-0.5709
X3.8976Y-0.5709
X3.8976Y-1.0039
X3.8976Y-1.0039
T3
X0.5118Y1.4862
X0.5118Y0.8169
X0.5118Y0.1476
X0.7087Y1.5728
X0.7087Y1.5728
X0.7087Y0.9035
X0.7087Y0.9035
X0.7087Y0.2343
X0.7087Y0.2343
X0.9055Y1.4862
X0.9055Y0.8169
X0.9055Y0.1476
X1.2205Y1.7224
X1.2205Y1.0531
X1.2205Y0.3839
X1.4173Y1.8091
X1.4173Y1.8091
X1.4173Y1.1398
X1.4173Y1.1398
X1.4173Y0.4705
X1.4173Y0.4705
X1.6142Y1.7224
X1.6142Y1.0531
X1.6142Y0.3839
X1.9291Y1.8799
X1.9291Y1.2106
X1.9291Y0.5413
X2.126Y1.9665
X2.126Y1.9665
X2.126Y1.2972
X2.126Y1.2972
X2.126Y0.628
X2.126Y0.628
X2.3228Y1.8799
X2.3228Y1.2106
X2.3228Y0.5413
X2.6378Y1.7618
X2.6378Y1.0925
X2.6378Y0.4232
X2.8346Y1.8484
X2.8346Y1.8484
X2.8346Y1.1791
X2.8346Y1.1791
X2.8346Y0.5098
X2.8346Y0.5098
X2.8346Y-0.4429
X3.0315Y1.7618
X3.0315Y1.0925
X3.0315Y0.4232
X3.0315Y-0.3563
X3.0315Y-0.3563
X3.2283Y-0.4429
X3.3465Y1.6831
X3.3465Y1.0138
X3.3465Y0.3445
X3.5433Y1.7697
X3.5433Y1.7697
X3.5433Y1.1004
X3.5433Y1.1004
X3.5433Y0.4311
X3.5433Y0.4311
X3.6634Y-0.7874
X3.6634Y-0.7874
X3.7402Y1.6831
X3.7402Y1.0138
X3.7402Y0.3445
X3.75Y-0.5906
X3.75Y-0.9843
T4
X0.7087Y1.3386
X0.7087Y1.3386
X0.7087Y0.6693
X0.7087Y0.6693
X0.7087Y0.0
X0.7087Y0.0
X1.4173Y1.5748
X1.4173Y1.5748
X1.4173Y0.9055
X1.4173Y0.9055
X1.4173Y0.2362
X1.4173Y0.2362
X2.126Y1.7323
X2.126Y1.7323
X2.126Y1.063
X2.126Y1.063
X2.126Y0.3937
X2.126Y0.3937
X2.8346Y1.6142
X2.8346Y1.6142
X2.8346Y0.9449
X2.8346Y0.9449
X2.8346Y0.2756
X2.8346Y0.2756
X3.0315Y-0.5906
X3.0315Y-0.5906
X3.5433Y1.5354
X3.5433Y1.5354
X3.5433Y0.8661
X3.5433Y0.8661
X3.5433Y0.1969
X3.5433Y0.1969
X3.8976Y-0.7874
X3.8976Y-0.7874
T0
M30
