M48
; DRILL file {KiCad (6.0.9)} date Mon Dec 19 17:51:35 2022
; FORMAT={-:-/ absolute / inch / decimal}
; #@! TF.CreationDate,2022-12-19T17:51:35-06:00
; #@! TF.GenerationSoftware,Kicad,Pcbnew,(6.0.9)
; #@! TF.FileFunction,Plated,1,2,PTH
FMAT,2
INCH
; #@! TA.AperFunction,Plated,PTH,ComponentDrill
T1C0.0118
; #@! TA.AperFunction,Plated,PTH,ComponentDrill
T2C0.0157
; #@! TA.AperFunction,Plated,PTH,ComponentDrill
T3C0.0295
; #@! TA.AperFunction,Plated,PTH,ComponentDrill
T4C0.0433
; #@! TA.AperFunction,Plated,PTH,ComponentDrill
T5C0.0500
%
G90
G05
T1
X1.9685Y-0.8957
X1.9685Y-0.9449
X2.3031Y-0.8563
X2.3031Y-0.9055
T2
X0.5327Y-0.718
X0.5327Y-0.778
X0.6327Y-0.718
X0.6327Y-0.778
X0.7327Y-0.718
X0.7327Y-0.778
X0.8327Y-0.718
X0.8327Y-0.778
X0.9327Y-0.718
X0.9327Y-0.778
X1.0327Y-0.718
X1.0327Y-0.778
X1.1327Y-0.718
X1.1327Y-0.778
X1.2327Y-0.718
X1.2327Y-0.778
X1.3327Y-0.718
X1.3327Y-0.778
X1.4327Y-0.718
X1.4327Y-0.778
X1.5327Y-0.718
X1.5327Y-0.778
X1.6327Y-0.718
X1.6327Y-0.778
T3
X1.9291Y-0.7087
X1.9291Y-0.7874
T4
X0.5327Y-0.448
X0.5327Y-0.448
X0.5327Y-1.048
X0.5327Y-1.048
X0.6327Y-0.448
X0.6327Y-1.048
X0.7327Y-0.448
X0.7327Y-1.048
X0.8327Y-0.448
X0.8327Y-1.048
X0.9327Y-0.448
X0.9327Y-1.048
X1.0327Y-0.448
X1.0327Y-1.048
X1.1327Y-0.448
X1.1327Y-1.048
X1.2327Y-0.448
X1.2327Y-1.048
X1.3327Y-0.448
X1.3327Y-1.048
X1.4327Y-0.448
X1.4327Y-1.048
X1.5327Y-0.448
X1.5327Y-1.048
X1.6327Y-0.448
X1.6327Y-1.048
T5
X0.5118Y1.189
X0.5118Y0.5197
X0.5118Y-0.1496
X0.7087Y1.1063
X0.7087Y1.1063
X0.7087Y0.437
X0.7087Y0.437
X0.7087Y-0.2323
X0.7087Y-0.2323
X0.9055Y1.189
X0.9055Y0.5197
X0.9055Y-0.1496
X1.2205Y1.4252
X1.2205Y0.7559
X1.2205Y0.0866
X1.4173Y1.3425
X1.4173Y1.3425
X1.4173Y0.6732
X1.4173Y0.6732
X1.4173Y0.0039
X1.4173Y0.0039
X1.6142Y1.4252
X1.6142Y0.7559
X1.6142Y0.0866
X1.9291Y1.5827
X1.9291Y0.9134
X1.9291Y0.2441
X2.126Y1.5
X2.126Y1.5
X2.126Y0.8307
X2.126Y0.8307
X2.126Y0.1614
X2.126Y0.1614
X2.3228Y1.5827
X2.3228Y0.9134
X2.3228Y0.2441
X2.6378Y1.4646
X2.6378Y0.7953
X2.6378Y0.126
X2.8346Y1.3819
X2.8346Y1.3819
X2.8346Y0.7126
X2.8346Y0.7126
X2.8346Y0.0433
X2.8346Y0.0433
X2.8346Y-0.7402
X3.0315Y1.4646
X3.0315Y0.7953
X3.0315Y0.126
X3.0315Y-0.8228
X3.0315Y-0.8228
X3.2283Y-0.7402
X3.3465Y1.3858
X3.3465Y0.7165
X3.3465Y0.0472
X3.5433Y1.3031
X3.5433Y1.3031
X3.5433Y0.6339
X3.5433Y0.6339
X3.5433Y-0.0354
X3.5433Y-0.0354
X3.7402Y1.3858
X3.7402Y0.7165
X3.7402Y0.0472
X4.0472Y-0.5906
X4.0472Y-0.9843
X4.1299Y-0.7874
X4.1299Y-0.7874
T0
M30
