%TF.GenerationSoftware,KiCad,Pcbnew,(6.0.9)*%
%TF.CreationDate,2022-12-19T17:51:50-06:00*%
%TF.ProjectId,gentle34,67656e74-6c65-4333-942e-6b696361645f,v1.0.0*%
%TF.SameCoordinates,Original*%
%TF.FileFunction,Soldermask,Bot*%
%TF.FilePolarity,Negative*%
%FSLAX46Y46*%
G04 Gerber Fmt 4.6, Leading zero omitted, Abs format (unit mm)*
G04 Created by KiCad (PCBNEW (6.0.9)) date 2022-12-19 17:51:50*
%MOMM*%
%LPD*%
G01*
G04 APERTURE LIST*
G04 Aperture macros list*
%AMRoundRect*
0 Rectangle with rounded corners*
0 $1 Rounding radius*
0 $2 $3 $4 $5 $6 $7 $8 $9 X,Y pos of 4 corners*
0 Add a 4 corners polygon primitive as box body*
4,1,4,$2,$3,$4,$5,$6,$7,$8,$9,$2,$3,0*
0 Add four circle primitives for the rounded corners*
1,1,$1+$1,$2,$3*
1,1,$1+$1,$4,$5*
1,1,$1+$1,$6,$7*
1,1,$1+$1,$8,$9*
0 Add four rect primitives between the rounded corners*
20,1,$1+$1,$2,$3,$4,$5,0*
20,1,$1+$1,$4,$5,$6,$7,0*
20,1,$1+$1,$6,$7,$8,$9,0*
20,1,$1+$1,$8,$9,$2,$3,0*%
%AMFreePoly0*
4,1,16,0.635355,1.035355,0.650000,1.000000,0.650000,-0.250000,0.635355,-0.285355,0.600000,-0.300000,-0.600000,-0.300000,-0.635355,-0.285355,-0.650000,-0.250000,-0.650000,1.000000,-0.635355,1.035355,-0.600000,1.050000,-0.564645,1.035355,0.000000,0.470710,0.564645,1.035355,0.600000,1.050000,0.635355,1.035355,0.635355,1.035355,$1*%
%AMFreePoly1*
4,1,14,0.635355,0.435355,0.650000,0.400000,0.650000,0.200000,0.635355,0.164645,0.035355,-0.435355,0.000000,-0.450000,-0.035355,-0.435355,-0.635355,0.164645,-0.650000,0.200000,-0.650000,0.400000,-0.635355,0.435355,-0.600000,0.450000,0.600000,0.450000,0.635355,0.435355,0.635355,0.435355,$1*%
G04 Aperture macros list end*
%ADD10C,0.250000*%
%ADD11C,0.100000*%
%ADD12C,3.529000*%
%ADD13C,1.801800*%
%ADD14C,3.100000*%
%ADD15RoundRect,0.050000X-1.300000X-1.300000X1.300000X-1.300000X1.300000X1.300000X-1.300000X1.300000X0*%
%ADD16C,2.132000*%
%ADD17RoundRect,0.050000X1.300000X-1.300000X1.300000X1.300000X-1.300000X1.300000X-1.300000X-1.300000X0*%
%ADD18C,1.700000*%
%ADD19RoundRect,0.050000X-0.800000X-0.800000X0.800000X-0.800000X0.800000X0.800000X-0.800000X0.800000X0*%
%ADD20FreePoly0,180.000000*%
%ADD21FreePoly1,180.000000*%
%ADD22FreePoly1,0.000000*%
%ADD23FreePoly0,0.000000*%
%ADD24C,1.000000*%
%ADD25RoundRect,0.050000X-0.350000X-0.750000X0.350000X-0.750000X0.350000X0.750000X-0.350000X0.750000X0*%
%ADD26RoundRect,0.050000X-0.500000X-0.400000X0.500000X-0.400000X0.500000X0.400000X-0.500000X0.400000X0*%
%ADD27RoundRect,0.050000X-0.450000X-0.850000X0.450000X-0.850000X0.450000X0.850000X-0.450000X0.850000X0*%
%ADD28RoundRect,0.050000X0.850000X-0.600000X0.850000X0.600000X-0.850000X0.600000X-0.850000X-0.600000X0*%
%ADD29O,1.800000X1.300000*%
G04 APERTURE END LIST*
D10*
%TO.C,MCU1*%
X41595000Y-19762000D02*
G75*
G03*
X41595000Y-19762000I-125000J0D01*
G01*
X41595000Y-18238000D02*
G75*
G03*
X41595000Y-18238000I-125000J0D01*
G01*
X39055000Y-19762000D02*
G75*
G03*
X39055000Y-19762000I-125000J0D01*
G01*
X39055000Y-18238000D02*
G75*
G03*
X39055000Y-18238000I-125000J0D01*
G01*
X36515000Y-19762000D02*
G75*
G03*
X36515000Y-19762000I-125000J0D01*
G01*
X36515000Y-18238000D02*
G75*
G03*
X36515000Y-18238000I-125000J0D01*
G01*
X33975000Y-19762000D02*
G75*
G03*
X33975000Y-19762000I-125000J0D01*
G01*
X33975000Y-18238000D02*
G75*
G03*
X33975000Y-18238000I-125000J0D01*
G01*
X31435000Y-19762000D02*
G75*
G03*
X31435000Y-19762000I-125000J0D01*
G01*
X31435000Y-18238000D02*
G75*
G03*
X31435000Y-18238000I-125000J0D01*
G01*
X28895000Y-19762000D02*
G75*
G03*
X28895000Y-19762000I-125000J0D01*
G01*
X28895000Y-18238000D02*
G75*
G03*
X28895000Y-18238000I-125000J0D01*
G01*
X26355000Y-19762000D02*
G75*
G03*
X26355000Y-19762000I-125000J0D01*
G01*
X26355000Y-18238000D02*
G75*
G03*
X26355000Y-18238000I-125000J0D01*
G01*
X23815000Y-19762000D02*
G75*
G03*
X23815000Y-19762000I-125000J0D01*
G01*
X23815000Y-18238000D02*
G75*
G03*
X23815000Y-18238000I-125000J0D01*
G01*
X21275000Y-19762000D02*
G75*
G03*
X21275000Y-19762000I-125000J0D01*
G01*
X21275000Y-18238000D02*
G75*
G03*
X21275000Y-18238000I-125000J0D01*
G01*
X18735000Y-19762000D02*
G75*
G03*
X18735000Y-19762000I-125000J0D01*
G01*
X18735000Y-18238000D02*
G75*
G03*
X18735000Y-18238000I-125000J0D01*
G01*
X16195000Y-18238000D02*
G75*
G03*
X16195000Y-18238000I-125000J0D01*
G01*
X16195000Y-19762000D02*
G75*
G03*
X16195000Y-19762000I-125000J0D01*
G01*
X13655000Y-19762000D02*
G75*
G03*
X13655000Y-19762000I-125000J0D01*
G01*
X13655000Y-18238000D02*
G75*
G03*
X13655000Y-18238000I-125000J0D01*
G01*
G36*
X41978000Y-13920000D02*
G01*
X40962000Y-13920000D01*
X40962000Y-12904000D01*
X41978000Y-12904000D01*
X41978000Y-13920000D01*
G37*
D11*
X41978000Y-13920000D02*
X40962000Y-13920000D01*
X40962000Y-12904000D01*
X41978000Y-12904000D01*
X41978000Y-13920000D01*
G36*
X39438000Y-13920000D02*
G01*
X38422000Y-13920000D01*
X38422000Y-12904000D01*
X39438000Y-12904000D01*
X39438000Y-13920000D01*
G37*
X39438000Y-13920000D02*
X38422000Y-13920000D01*
X38422000Y-12904000D01*
X39438000Y-12904000D01*
X39438000Y-13920000D01*
G36*
X36898000Y-13920000D02*
G01*
X35882000Y-13920000D01*
X35882000Y-12904000D01*
X36898000Y-12904000D01*
X36898000Y-13920000D01*
G37*
X36898000Y-13920000D02*
X35882000Y-13920000D01*
X35882000Y-12904000D01*
X36898000Y-12904000D01*
X36898000Y-13920000D01*
G36*
X34358000Y-13920000D02*
G01*
X33342000Y-13920000D01*
X33342000Y-12904000D01*
X34358000Y-12904000D01*
X34358000Y-13920000D01*
G37*
X34358000Y-13920000D02*
X33342000Y-13920000D01*
X33342000Y-12904000D01*
X34358000Y-12904000D01*
X34358000Y-13920000D01*
G36*
X31818000Y-13920000D02*
G01*
X30802000Y-13920000D01*
X30802000Y-12904000D01*
X31818000Y-12904000D01*
X31818000Y-13920000D01*
G37*
X31818000Y-13920000D02*
X30802000Y-13920000D01*
X30802000Y-12904000D01*
X31818000Y-12904000D01*
X31818000Y-13920000D01*
G36*
X29278000Y-13920000D02*
G01*
X28262000Y-13920000D01*
X28262000Y-12904000D01*
X29278000Y-12904000D01*
X29278000Y-13920000D01*
G37*
X29278000Y-13920000D02*
X28262000Y-13920000D01*
X28262000Y-12904000D01*
X29278000Y-12904000D01*
X29278000Y-13920000D01*
G36*
X26738000Y-13920000D02*
G01*
X25722000Y-13920000D01*
X25722000Y-12904000D01*
X26738000Y-12904000D01*
X26738000Y-13920000D01*
G37*
X26738000Y-13920000D02*
X25722000Y-13920000D01*
X25722000Y-12904000D01*
X26738000Y-12904000D01*
X26738000Y-13920000D01*
G36*
X24198000Y-13920000D02*
G01*
X23182000Y-13920000D01*
X23182000Y-12904000D01*
X24198000Y-12904000D01*
X24198000Y-13920000D01*
G37*
X24198000Y-13920000D02*
X23182000Y-13920000D01*
X23182000Y-12904000D01*
X24198000Y-12904000D01*
X24198000Y-13920000D01*
G36*
X21658000Y-13920000D02*
G01*
X20642000Y-13920000D01*
X20642000Y-12904000D01*
X21658000Y-12904000D01*
X21658000Y-13920000D01*
G37*
X21658000Y-13920000D02*
X20642000Y-13920000D01*
X20642000Y-12904000D01*
X21658000Y-12904000D01*
X21658000Y-13920000D01*
G36*
X19118000Y-13920000D02*
G01*
X18102000Y-13920000D01*
X18102000Y-12904000D01*
X19118000Y-12904000D01*
X19118000Y-13920000D01*
G37*
X19118000Y-13920000D02*
X18102000Y-13920000D01*
X18102000Y-12904000D01*
X19118000Y-12904000D01*
X19118000Y-13920000D01*
G36*
X16578000Y-13920000D02*
G01*
X15562000Y-13920000D01*
X15562000Y-12904000D01*
X16578000Y-12904000D01*
X16578000Y-13920000D01*
G37*
X16578000Y-13920000D02*
X15562000Y-13920000D01*
X15562000Y-12904000D01*
X16578000Y-12904000D01*
X16578000Y-13920000D01*
G36*
X14038000Y-13920000D02*
G01*
X13022000Y-13920000D01*
X13022000Y-12904000D01*
X14038000Y-12904000D01*
X14038000Y-13920000D01*
G37*
X14038000Y-13920000D02*
X13022000Y-13920000D01*
X13022000Y-12904000D01*
X14038000Y-12904000D01*
X14038000Y-13920000D01*
G36*
X41978000Y-25096000D02*
G01*
X40962000Y-25096000D01*
X40962000Y-24080000D01*
X41978000Y-24080000D01*
X41978000Y-25096000D01*
G37*
X41978000Y-25096000D02*
X40962000Y-25096000D01*
X40962000Y-24080000D01*
X41978000Y-24080000D01*
X41978000Y-25096000D01*
G36*
X39438000Y-25096000D02*
G01*
X38422000Y-25096000D01*
X38422000Y-24080000D01*
X39438000Y-24080000D01*
X39438000Y-25096000D01*
G37*
X39438000Y-25096000D02*
X38422000Y-25096000D01*
X38422000Y-24080000D01*
X39438000Y-24080000D01*
X39438000Y-25096000D01*
G36*
X36898000Y-25096000D02*
G01*
X35882000Y-25096000D01*
X35882000Y-24080000D01*
X36898000Y-24080000D01*
X36898000Y-25096000D01*
G37*
X36898000Y-25096000D02*
X35882000Y-25096000D01*
X35882000Y-24080000D01*
X36898000Y-24080000D01*
X36898000Y-25096000D01*
G36*
X34358000Y-25096000D02*
G01*
X33342000Y-25096000D01*
X33342000Y-24080000D01*
X34358000Y-24080000D01*
X34358000Y-25096000D01*
G37*
X34358000Y-25096000D02*
X33342000Y-25096000D01*
X33342000Y-24080000D01*
X34358000Y-24080000D01*
X34358000Y-25096000D01*
G36*
X31818000Y-25096000D02*
G01*
X30802000Y-25096000D01*
X30802000Y-24080000D01*
X31818000Y-24080000D01*
X31818000Y-25096000D01*
G37*
X31818000Y-25096000D02*
X30802000Y-25096000D01*
X30802000Y-24080000D01*
X31818000Y-24080000D01*
X31818000Y-25096000D01*
G36*
X29278000Y-25096000D02*
G01*
X28262000Y-25096000D01*
X28262000Y-24080000D01*
X29278000Y-24080000D01*
X29278000Y-25096000D01*
G37*
X29278000Y-25096000D02*
X28262000Y-25096000D01*
X28262000Y-24080000D01*
X29278000Y-24080000D01*
X29278000Y-25096000D01*
G36*
X26738000Y-25096000D02*
G01*
X25722000Y-25096000D01*
X25722000Y-24080000D01*
X26738000Y-24080000D01*
X26738000Y-25096000D01*
G37*
X26738000Y-25096000D02*
X25722000Y-25096000D01*
X25722000Y-24080000D01*
X26738000Y-24080000D01*
X26738000Y-25096000D01*
G36*
X24198000Y-25096000D02*
G01*
X23182000Y-25096000D01*
X23182000Y-24080000D01*
X24198000Y-24080000D01*
X24198000Y-25096000D01*
G37*
X24198000Y-25096000D02*
X23182000Y-25096000D01*
X23182000Y-24080000D01*
X24198000Y-24080000D01*
X24198000Y-25096000D01*
G36*
X21658000Y-25096000D02*
G01*
X20642000Y-25096000D01*
X20642000Y-24080000D01*
X21658000Y-24080000D01*
X21658000Y-25096000D01*
G37*
X21658000Y-25096000D02*
X20642000Y-25096000D01*
X20642000Y-24080000D01*
X21658000Y-24080000D01*
X21658000Y-25096000D01*
G36*
X19118000Y-25096000D02*
G01*
X18102000Y-25096000D01*
X18102000Y-24080000D01*
X19118000Y-24080000D01*
X19118000Y-25096000D01*
G37*
X19118000Y-25096000D02*
X18102000Y-25096000D01*
X18102000Y-24080000D01*
X19118000Y-24080000D01*
X19118000Y-25096000D01*
G36*
X16578000Y-25096000D02*
G01*
X15562000Y-25096000D01*
X15562000Y-24080000D01*
X16578000Y-24080000D01*
X16578000Y-25096000D01*
G37*
X16578000Y-25096000D02*
X15562000Y-25096000D01*
X15562000Y-24080000D01*
X16578000Y-24080000D01*
X16578000Y-25096000D01*
G36*
X14038000Y-25096000D02*
G01*
X13022000Y-25096000D01*
X13022000Y-24080000D01*
X14038000Y-24080000D01*
X14038000Y-25096000D01*
G37*
X14038000Y-25096000D02*
X13022000Y-25096000D01*
X13022000Y-24080000D01*
X14038000Y-24080000D01*
X14038000Y-25096000D01*
%TD*%
D12*
%TO.C,S1*%
X18000000Y0D03*
D13*
X23500000Y0D03*
X12500000Y0D03*
D14*
X23000000Y3750000D03*
X18000000Y5950000D03*
D15*
X14725000Y5950000D03*
X26275000Y3750000D03*
D14*
X13000000Y3750000D03*
X18000000Y5950000D03*
%TD*%
D12*
%TO.C,S2*%
X18000000Y0D03*
D13*
X12500000Y0D03*
X23500000Y0D03*
D16*
X13000000Y-3800000D03*
X18000000Y-5900000D03*
X23000000Y-3800000D03*
X18000000Y-5900000D03*
%TD*%
D12*
%TO.C,S3*%
X18000000Y17000000D03*
D13*
X23500000Y17000000D03*
X12500000Y17000000D03*
D14*
X23000000Y20750000D03*
X18000000Y22950000D03*
D15*
X14725000Y22950000D03*
X26275000Y20750000D03*
D14*
X13000000Y20750000D03*
X18000000Y22950000D03*
%TD*%
D12*
%TO.C,S4*%
X18000000Y17000000D03*
D13*
X12500000Y17000000D03*
X23500000Y17000000D03*
D16*
X13000000Y13200000D03*
X18000000Y11100000D03*
X23000000Y13200000D03*
X18000000Y11100000D03*
%TD*%
D12*
%TO.C,S5*%
X18000000Y34000000D03*
D13*
X23500000Y34000000D03*
X12500000Y34000000D03*
D14*
X23000000Y37750000D03*
X18000000Y39950000D03*
D15*
X14725000Y39950000D03*
X26275000Y37750000D03*
D14*
X13000000Y37750000D03*
X18000000Y39950000D03*
%TD*%
D12*
%TO.C,S6*%
X18000000Y34000000D03*
D13*
X12500000Y34000000D03*
X23500000Y34000000D03*
D16*
X13000000Y30200000D03*
X18000000Y28100000D03*
X23000000Y30200000D03*
X18000000Y28100000D03*
%TD*%
D12*
%TO.C,S7*%
X36000000Y6000000D03*
D13*
X41500000Y6000000D03*
X30500000Y6000000D03*
D14*
X41000000Y9750000D03*
X36000000Y11950000D03*
D15*
X32725000Y11950000D03*
X44275000Y9750000D03*
D14*
X31000000Y9750000D03*
X36000000Y11950000D03*
%TD*%
D12*
%TO.C,S8*%
X36000000Y6000000D03*
D13*
X30500000Y6000000D03*
X41500000Y6000000D03*
D16*
X31000000Y2200000D03*
X36000000Y100000D03*
X41000000Y2200000D03*
X36000000Y100000D03*
%TD*%
D12*
%TO.C,S9*%
X36000000Y23000000D03*
D13*
X41500000Y23000000D03*
X30500000Y23000000D03*
D14*
X41000000Y26750000D03*
X36000000Y28950000D03*
D15*
X32725000Y28950000D03*
X44275000Y26750000D03*
D14*
X31000000Y26750000D03*
X36000000Y28950000D03*
%TD*%
D12*
%TO.C,S10*%
X36000000Y23000000D03*
D13*
X30500000Y23000000D03*
X41500000Y23000000D03*
D16*
X31000000Y19200000D03*
X36000000Y17100000D03*
X41000000Y19200000D03*
X36000000Y17100000D03*
%TD*%
D12*
%TO.C,S11*%
X36000000Y40000000D03*
D13*
X41500000Y40000000D03*
X30500000Y40000000D03*
D14*
X41000000Y43750000D03*
X36000000Y45950000D03*
D15*
X32725000Y45950000D03*
X44275000Y43750000D03*
D14*
X31000000Y43750000D03*
X36000000Y45950000D03*
%TD*%
D12*
%TO.C,S12*%
X36000000Y40000000D03*
D13*
X30500000Y40000000D03*
X41500000Y40000000D03*
D16*
X31000000Y36200000D03*
X36000000Y34100000D03*
X41000000Y36200000D03*
X36000000Y34100000D03*
%TD*%
D12*
%TO.C,S13*%
X54000000Y10000000D03*
D13*
X59500000Y10000000D03*
X48500000Y10000000D03*
D14*
X59000000Y13750000D03*
X54000000Y15950000D03*
D15*
X50725000Y15950000D03*
X62275000Y13750000D03*
D14*
X49000000Y13750000D03*
X54000000Y15950000D03*
%TD*%
D12*
%TO.C,S14*%
X54000000Y10000000D03*
D13*
X48500000Y10000000D03*
X59500000Y10000000D03*
D16*
X49000000Y6200000D03*
X54000000Y4100000D03*
X59000000Y6200000D03*
X54000000Y4100000D03*
%TD*%
D12*
%TO.C,S15*%
X54000000Y27000000D03*
D13*
X59500000Y27000000D03*
X48500000Y27000000D03*
D14*
X59000000Y30750000D03*
X54000000Y32950000D03*
D15*
X50725000Y32950000D03*
X62275000Y30750000D03*
D14*
X49000000Y30750000D03*
X54000000Y32950000D03*
%TD*%
D12*
%TO.C,S16*%
X54000000Y27000000D03*
D13*
X48500000Y27000000D03*
X59500000Y27000000D03*
D16*
X49000000Y23200000D03*
X54000000Y21100000D03*
X59000000Y23200000D03*
X54000000Y21100000D03*
%TD*%
D12*
%TO.C,S17*%
X54000000Y44000000D03*
D13*
X59500000Y44000000D03*
X48500000Y44000000D03*
D14*
X59000000Y47750000D03*
X54000000Y49950000D03*
D15*
X50725000Y49950000D03*
X62275000Y47750000D03*
D14*
X49000000Y47750000D03*
X54000000Y49950000D03*
%TD*%
D12*
%TO.C,S18*%
X54000000Y44000000D03*
D13*
X48500000Y44000000D03*
X59500000Y44000000D03*
D16*
X49000000Y40200000D03*
X54000000Y38100000D03*
X59000000Y40200000D03*
X54000000Y38100000D03*
%TD*%
D12*
%TO.C,S19*%
X72000000Y7000000D03*
D13*
X77500000Y7000000D03*
X66500000Y7000000D03*
D14*
X77000000Y10750000D03*
X72000000Y12950000D03*
D15*
X68725000Y12950000D03*
X80275000Y10750000D03*
D14*
X67000000Y10750000D03*
X72000000Y12950000D03*
%TD*%
D12*
%TO.C,S20*%
X72000000Y7000000D03*
D13*
X66500000Y7000000D03*
X77500000Y7000000D03*
D16*
X67000000Y3200000D03*
X72000000Y1100000D03*
X77000000Y3200000D03*
X72000000Y1100000D03*
%TD*%
D12*
%TO.C,S21*%
X72000000Y24000000D03*
D13*
X77500000Y24000000D03*
X66500000Y24000000D03*
D14*
X77000000Y27750000D03*
X72000000Y29950000D03*
D15*
X68725000Y29950000D03*
X80275000Y27750000D03*
D14*
X67000000Y27750000D03*
X72000000Y29950000D03*
%TD*%
D12*
%TO.C,S22*%
X72000000Y24000000D03*
D13*
X66500000Y24000000D03*
X77500000Y24000000D03*
D16*
X67000000Y20200000D03*
X72000000Y18100000D03*
X77000000Y20200000D03*
X72000000Y18100000D03*
%TD*%
D12*
%TO.C,S23*%
X72000000Y41000000D03*
D13*
X77500000Y41000000D03*
X66500000Y41000000D03*
D14*
X77000000Y44750000D03*
X72000000Y46950000D03*
D15*
X68725000Y46950000D03*
X80275000Y44750000D03*
D14*
X67000000Y44750000D03*
X72000000Y46950000D03*
%TD*%
D12*
%TO.C,S24*%
X72000000Y41000000D03*
D13*
X66500000Y41000000D03*
X77500000Y41000000D03*
D16*
X67000000Y37200000D03*
X72000000Y35100000D03*
X77000000Y37200000D03*
X72000000Y35100000D03*
%TD*%
D12*
%TO.C,S25*%
X90000000Y5000000D03*
D13*
X95500000Y5000000D03*
X84500000Y5000000D03*
D14*
X95000000Y8750000D03*
X90000000Y10950000D03*
D15*
X86725000Y10950000D03*
X98275000Y8750000D03*
D14*
X85000000Y8750000D03*
X90000000Y10950000D03*
%TD*%
D12*
%TO.C,S26*%
X90000000Y5000000D03*
D13*
X84500000Y5000000D03*
X95500000Y5000000D03*
D16*
X85000000Y1200000D03*
X90000000Y-900000D03*
X95000000Y1200000D03*
X90000000Y-900000D03*
%TD*%
D12*
%TO.C,S27*%
X90000000Y22000000D03*
D13*
X95500000Y22000000D03*
X84500000Y22000000D03*
D14*
X95000000Y25750000D03*
X90000000Y27950000D03*
D15*
X86725000Y27950000D03*
X98275000Y25750000D03*
D14*
X85000000Y25750000D03*
X90000000Y27950000D03*
%TD*%
D12*
%TO.C,S28*%
X90000000Y22000000D03*
D13*
X84500000Y22000000D03*
X95500000Y22000000D03*
D16*
X85000000Y18200000D03*
X90000000Y16100000D03*
X95000000Y18200000D03*
X90000000Y16100000D03*
%TD*%
D12*
%TO.C,S29*%
X90000000Y39000000D03*
D13*
X95500000Y39000000D03*
X84500000Y39000000D03*
D14*
X95000000Y42750000D03*
X90000000Y44950000D03*
D15*
X86725000Y44950000D03*
X98275000Y42750000D03*
D14*
X85000000Y42750000D03*
X90000000Y44950000D03*
%TD*%
D12*
%TO.C,S30*%
X90000000Y39000000D03*
D13*
X84500000Y39000000D03*
X95500000Y39000000D03*
D16*
X85000000Y35200000D03*
X90000000Y33100000D03*
X95000000Y35200000D03*
X90000000Y33100000D03*
%TD*%
D12*
%TO.C,S31*%
X77000000Y-15000000D03*
D13*
X82500000Y-15000000D03*
X71500000Y-15000000D03*
D14*
X82000000Y-11250000D03*
X77000000Y-9050000D03*
D15*
X73725000Y-9050000D03*
X85275000Y-11250000D03*
D14*
X72000000Y-11250000D03*
X77000000Y-9050000D03*
%TD*%
D12*
%TO.C,S32*%
X77000000Y-15000000D03*
D13*
X71500000Y-15000000D03*
X82500000Y-15000000D03*
D16*
X72000000Y-18800000D03*
X77000000Y-20900000D03*
X82000000Y-18800000D03*
X77000000Y-20900000D03*
%TD*%
D12*
%TO.C,S33*%
X99000000Y-20000000D03*
D13*
X99000000Y-14500000D03*
X99000000Y-25500000D03*
D14*
X95250000Y-15000000D03*
X93050000Y-20000000D03*
D17*
X93050000Y-23275000D03*
X95250000Y-11725000D03*
D14*
X95250000Y-25000000D03*
X93050000Y-20000000D03*
%TD*%
D12*
%TO.C,S34*%
X99000000Y-20000000D03*
D13*
X99000000Y-25500000D03*
X99000000Y-14500000D03*
D16*
X102800000Y-25000000D03*
X104900000Y-20000000D03*
X102800000Y-15000000D03*
X104900000Y-20000000D03*
%TD*%
D18*
%TO.C,MCU1*%
X13530000Y-26620000D03*
X16070000Y-26620000D03*
X18610000Y-26620000D03*
X21150000Y-26620000D03*
X23690000Y-26620000D03*
X26230000Y-26620000D03*
X28770000Y-26620000D03*
X31310000Y-26620000D03*
X33850000Y-26620000D03*
X36390000Y-26620000D03*
X38930000Y-26620000D03*
X41470000Y-26620000D03*
X41470000Y-11380000D03*
X38930000Y-11380000D03*
X36390000Y-11380000D03*
X33850000Y-11380000D03*
X31310000Y-11380000D03*
X28770000Y-11380000D03*
X26230000Y-11380000D03*
X23690000Y-11380000D03*
X21150000Y-11380000D03*
X18610000Y-11380000D03*
X16070000Y-11380000D03*
X13530000Y-11380000D03*
D19*
X13530000Y-11380000D03*
D20*
X13530000Y-23826000D03*
D21*
X13530000Y-24842000D03*
X16070000Y-24842000D03*
D20*
X16070000Y-23826000D03*
D21*
X18610000Y-24842000D03*
D20*
X18610000Y-23826000D03*
D21*
X21150000Y-24842000D03*
D20*
X21150000Y-23826000D03*
D21*
X23690000Y-24842000D03*
D20*
X23690000Y-23826000D03*
D21*
X26230000Y-24842000D03*
D20*
X26230000Y-23826000D03*
D21*
X28770000Y-24842000D03*
D20*
X28770000Y-23826000D03*
D21*
X31310000Y-24842000D03*
D20*
X31310000Y-23826000D03*
D21*
X33850000Y-24842000D03*
D20*
X33850000Y-23826000D03*
D21*
X36390000Y-24842000D03*
D20*
X36390000Y-23826000D03*
D21*
X38930000Y-24842000D03*
D20*
X38930000Y-23826000D03*
D21*
X41470000Y-24842000D03*
D20*
X41470000Y-23826000D03*
D22*
X13530000Y-13158000D03*
D23*
X13530000Y-14174000D03*
X16070000Y-14174000D03*
D22*
X16070000Y-13158000D03*
D23*
X18610000Y-14174000D03*
D22*
X18610000Y-13158000D03*
D23*
X21150000Y-14174000D03*
D22*
X21150000Y-13158000D03*
D23*
X23690000Y-14174000D03*
D22*
X23690000Y-13158000D03*
D23*
X26230000Y-14174000D03*
D22*
X26230000Y-13158000D03*
D23*
X28770000Y-14174000D03*
D22*
X28770000Y-13158000D03*
D23*
X31310000Y-14174000D03*
D22*
X31310000Y-13158000D03*
D23*
X33850000Y-14174000D03*
D22*
X33850000Y-13158000D03*
D23*
X36390000Y-14174000D03*
D22*
X36390000Y-13158000D03*
D23*
X38930000Y-14174000D03*
D22*
X38930000Y-13158000D03*
D23*
X41470000Y-14174000D03*
D22*
X41470000Y-13158000D03*
%TD*%
D24*
%TO.C,*%
X57000000Y-26830000D03*
X60000000Y-26830000D03*
X57000000Y-26830000D03*
X60000000Y-26830000D03*
D25*
X60750000Y-25070000D03*
X57750000Y-25070000D03*
X56250000Y-25070000D03*
D26*
X62150000Y-27930000D03*
X54850000Y-27930000D03*
X54850000Y-25720000D03*
X62150000Y-25720000D03*
%TD*%
D27*
%TO.C,*%
X48300000Y-26250000D03*
X51700000Y-26250000D03*
%TD*%
D28*
%TO.C,JST1*%
X49000000Y-20000000D03*
D29*
X49000000Y-18000000D03*
%TD*%
M02*
