0
SECTION
2
HEADER
9
$INSUNITS
70
4
0
ENDSEC
0
SECTION
2
TABLES
0
TABLE
2
LTYPE
0
LTYPE
72
65
70
64
2
CONTINUOUS
3
______
73
0
40
0
0
ENDTAB
0
TABLE
2
LAYER
0
ENDTAB
0
ENDSEC
0
SECTION
2
ENTITIES
0
LINE
8
0
10
8.25
20
-28.25
11
8.25
21
43
0
LINE
8
0
10
9
20
43.75
11
25.5
21
43.75
0
LINE
8
0
10
27
20
49.75
11
43.5
21
49.75
0
LINE
8
0
10
26.25
20
44.5
11
26.25
21
49
0
LINE
8
0
10
45
20
53.75
11
63
21
53.75
0
LINE
8
0
10
63.75
20
53
11
63.75
21
51.5
0
LINE
8
0
10
44.25
20
50.5
11
44.25
21
53
0
LINE
8
0
10
64.5
20
50.75
11
81
21
50.75
0
LINE
8
0
10
81.75
20
50
11
81.75
21
49.5
0
LINE
8
0
10
99.75
20
-5.5
11
99.75
21
48
0
LINE
8
0
10
82.5
20
48.75
11
99
21
48.75
0
LINE
8
0
10
64
20
-23.75
11
89.5
21
-23.75
0
LINE
8
0
10
107.75
20
-33
11
107.75
21
-7
0
LINE
8
0
10
90.25
20
-33
11
90.25
21
-24.5
0
LINE
8
0
10
100.5
20
-6.25
11
107
21
-6.25
0
LINE
8
0
10
91
20
-33.75
11
107
21
-33.75
0
LINE
8
0
10
9
20
-29
11
62.5
21
-29
0
LINE
8
0
10
63.25
20
-28.25
11
63.25
21
-24.5
0
ARC
8
0
10
9
20
43
40
0.75
50
90
51
180
0
ARC
8
0
10
25.5
20
44.5
40
0.75
50
270
51
0
0
ARC
8
0
10
27
20
49
40
0.75
50
90
51
180
0
ARC
8
0
10
43.5
20
50.5
40
0.75
50
270
51
0
0
ARC
8
0
10
45
20
53
40
0.75
50
90
51
180
0
ARC
8
0
10
63
20
53
40
0.75
50
0
51
90
0
ARC
8
0
10
64.5
20
51.5
40
0.75
50
180
51
270
0
ARC
8
0
10
81
20
50
40
0.75
50
0
51
90
0
ARC
8
0
10
82.5
20
49.5
40
0.75
50
180
51
270
0
ARC
8
0
10
99
20
48
40
0.75
50
0
51
90
0
ARC
8
0
10
100.5
20
-5.5
40
0.75
50
180
51
270
0
ARC
8
0
10
107
20
-7
40
0.75
50
0
51
90
0
ARC
8
0
10
107
20
-33
40
0.75
50
270
51
0
0
ARC
8
0
10
91
20
-33
40
0.75
50
180
51
270
0
ARC
8
0
10
89.5
20
-24.5
40
0.75
50
0
51
90
0
ARC
8
0
10
64
20
-24.5
40
0.75
50
90
51
180
0
ARC
8
0
10
62.5
20
-28.25
40
0.75
50
270
51
0
0
ARC
8
0
10
9
20
-28.25
40
0.75
50
180
51
270
0
ENDSEC
0
EOF